STARTFONT 2.1
FONT -Monotype-Century Gothic-Bold-R-Normal--12-120-75-75-P-63-iso8859-2
SIZE 12 75 75
FONTBOUNDINGBOX 19 16 -3 -3

STARTPROPERTIES 22
FOUNDRY "Monotype"
FAMILY_NAME "Century Gothic"
WEIGHT_NAME "Bold"
SLANT "R"
SETWIDTH_NAME "Normal"
ADD_STYLE_NAME ""
PIXEL_SIZE 12
POINT_SIZE 120
RESOLUTION_X 75
RESOLUTION_Y 75
SPACING "P"
AVERAGE_WIDTH 63
CHARSET_REGISTRY "iso8859"
CHARSET_ENCODING "2"
COPYRIGHT "Copyright (c) 1996 Monotype Typography Ltd."
CAP_HEIGHT 11
X_HEIGHT 8
WEIGHT 10
QUAD_WIDTH 7
DEFAULT_CHAR 160
FONT_DESCENT 3
FONT_ASCENT 13
ENDPROPERTIES

CHARS 191

STARTCHAR space
ENCODING 32
SWIDTH 280 0
DWIDTH 4 0
BBX 0 0 0 0
BITMAP
ENDCHAR

STARTCHAR exclam
ENCODING 33
SWIDTH 280 0
DWIDTH 4 0
BBX 2 10 1 0
BITMAP
C0
C0
C0
C0
C0
C0
C0
00
C0
C0
ENDCHAR

STARTCHAR quotedbl
ENCODING 34
SWIDTH 360 0
DWIDTH 5 0
BBX 5 3 0 7
BITMAP
D8
D8
D8
ENDCHAR

STARTCHAR numbersign
ENCODING 35
SWIDTH 600 0
DWIDTH 8 0
BBX 8 10 0 0
BITMAP
12
12
36
7F
26
64
FE
6C
48
48
ENDCHAR

STARTCHAR dollar
ENCODING 36
SWIDTH 560 0
DWIDTH 7 0
BBX 7 12 0 -1
BITMAP
18
7C
FE
C6
E0
78
1C
0E
C6
FE
7C
18
ENDCHAR

STARTCHAR percent
ENCODING 37
SWIDTH 860 0
DWIDTH 11 0
BBX 10 10 1 0
BITMAP
7B80
DE80
D980
7300
0600
0C00
1B80
16C0
36C0
6380
ENDCHAR

STARTCHAR ampersand
ENCODING 38
SWIDTH 680 0
DWIDTH 9 0
BBX 8 10 1 0
BITMAP
38
7C
6C
78
30
78
DB
CE
FE
73
ENDCHAR

STARTCHAR quoteright
ENCODING 39
SWIDTH 280 0
DWIDTH 4 0
BBX 3 4 1 6
BITMAP
60
60
60
C0
ENDCHAR

STARTCHAR parenleft
ENCODING 40
SWIDTH 380 0
DWIDTH 5 0
BBX 4 13 1 -3
BITMAP
30
60
60
C0
C0
C0
C0
C0
C0
C0
60
60
30
ENDCHAR

STARTCHAR parenright
ENCODING 41
SWIDTH 380 0
DWIDTH 5 0
BBX 4 13 1 -3
BITMAP
C0
60
60
30
30
30
30
30
30
30
60
60
C0
ENDCHAR

STARTCHAR asterisk
ENCODING 42
SWIDTH 440 0
DWIDTH 6 0
BBX 4 5 1 5
BITMAP
20
F0
60
F0
40
ENDCHAR

STARTCHAR plus
ENCODING 43
SWIDTH 600 0
DWIDTH 8 0
BBX 6 6 1 2
BITMAP
30
30
FC
FC
30
30
ENDCHAR

STARTCHAR comma
ENCODING 44
SWIDTH 280 0
DWIDTH 4 0
BBX 3 3 1 -1
BITMAP
60
60
C0
ENDCHAR

STARTCHAR minus
ENCODING 45
SWIDTH 600 0
DWIDTH 8 0
BBX 6 2 1 4
BITMAP
FC
FC
ENDCHAR

STARTCHAR period
ENCODING 46
SWIDTH 280 0
DWIDTH 4 0
BBX 2 2 1 0
BITMAP
C0
C0
ENDCHAR

STARTCHAR slash
ENCODING 47
SWIDTH 460 0
DWIDTH 6 0
BBX 6 12 0 -2
BITMAP
0C
08
08
18
10
10
20
20
60
40
40
C0
ENDCHAR

STARTCHAR zero
ENCODING 48
SWIDTH 560 0
DWIDTH 7 0
BBX 7 10 0 0
BITMAP
38
7C
C6
C6
C6
C6
C6
C6
7C
38
ENDCHAR

STARTCHAR one
ENCODING 49
SWIDTH 560 0
DWIDTH 7 0
BBX 4 10 1 0
BITMAP
70
F0
30
30
30
30
30
30
30
30
ENDCHAR

STARTCHAR two
ENCODING 50
SWIDTH 560 0
DWIDTH 7 0
BBX 6 10 1 0
BITMAP
70
F8
CC
0C
0C
18
30
60
FC
FC
ENDCHAR

STARTCHAR three
ENCODING 51
SWIDTH 560 0
DWIDTH 7 0
BBX 6 10 1 0
BITMAP
78
FC
CC
0C
38
38
0C
CC
FC
78
ENDCHAR

STARTCHAR four
ENCODING 52
SWIDTH 560 0
DWIDTH 7 0
BBX 7 10 0 0
BITMAP
0C
1C
3C
2C
6C
4C
FE
FE
0C
0C
ENDCHAR

STARTCHAR five
ENCODING 53
SWIDTH 560 0
DWIDTH 7 0
BBX 6 10 1 0
BITMAP
7C
7C
40
F0
F8
CC
0C
CC
F8
70
ENDCHAR

STARTCHAR six
ENCODING 54
SWIDTH 560 0
DWIDTH 7 0
BBX 6 10 1 0
BITMAP
30
30
60
60
F8
CC
CC
CC
78
30
ENDCHAR

STARTCHAR seven
ENCODING 55
SWIDTH 560 0
DWIDTH 7 0
BBX 6 10 1 0
BITMAP
FC
FC
18
18
30
30
60
60
C0
40
ENDCHAR

STARTCHAR eight
ENCODING 56
SWIDTH 560 0
DWIDTH 7 0
BBX 6 10 1 0
BITMAP
78
FC
CC
CC
78
FC
CC
CC
FC
78
ENDCHAR

STARTCHAR nine
ENCODING 57
SWIDTH 560 0
DWIDTH 7 0
BBX 6 10 1 0
BITMAP
30
78
CC
CC
CC
7C
18
18
30
30
ENDCHAR

STARTCHAR colon
ENCODING 58
SWIDTH 280 0
DWIDTH 4 0
BBX 2 7 1 0
BITMAP
C0
C0
00
00
00
C0
C0
ENDCHAR

STARTCHAR semicolon
ENCODING 59
SWIDTH 280 0
DWIDTH 4 0
BBX 3 8 1 -1
BITMAP
60
60
00
00
00
60
60
C0
ENDCHAR

STARTCHAR less
ENCODING 60
SWIDTH 600 0
DWIDTH 8 0
BBX 6 7 1 1
BITMAP
04
1C
70
C0
70
1C
04
ENDCHAR

STARTCHAR equal
ENCODING 61
SWIDTH 600 0
DWIDTH 8 0
BBX 6 5 1 2
BITMAP
FC
FC
00
FC
FC
ENDCHAR

STARTCHAR greater
ENCODING 62
SWIDTH 600 0
DWIDTH 8 0
BBX 6 7 1 1
BITMAP
80
E0
38
0C
38
E0
80
ENDCHAR

STARTCHAR question
ENCODING 63
SWIDTH 560 0
DWIDTH 7 0
BBX 6 10 1 0
BITMAP
38
7C
CC
CC
18
30
30
00
30
30
ENDCHAR

STARTCHAR at
ENCODING 64
SWIDTH 740 0
DWIDTH 10 0
BBX 10 10 0 0
BITMAP
1F00
6080
5B40
B740
B340
B340
B680
5B00
6080
1F00
ENDCHAR

STARTCHAR A
ENCODING 65
SWIDTH 740 0
DWIDTH 10 0
BBX 10 10 0 0
BITMAP
0C00
0C00
1E00
1E00
3300
3300
7F80
7F80
C0C0
C0C0
ENDCHAR

STARTCHAR B
ENCODING 66
SWIDTH 580 0
DWIDTH 7 0
BBX 6 10 1 0
BITMAP
F8
FC
CC
CC
F8
FC
CC
CC
FC
F8
ENDCHAR

STARTCHAR C
ENCODING 67
SWIDTH 780 0
DWIDTH 10 0
BBX 9 10 1 0
BITMAP
1E00
7F80
6180
C000
C000
C000
C000
6180
7F80
1E00
ENDCHAR

STARTCHAR D
ENCODING 68
SWIDTH 700 0
DWIDTH 9 0
BBX 8 10 1 0
BITMAP
F8
FE
C6
C3
C3
C3
C3
C6
FE
F8
ENDCHAR

STARTCHAR E
ENCODING 69
SWIDTH 520 0
DWIDTH 7 0
BBX 5 10 1 0
BITMAP
F8
F8
C0
C0
F8
F8
C0
C0
F8
F8
ENDCHAR

STARTCHAR F
ENCODING 70
SWIDTH 480 0
DWIDTH 6 0
BBX 5 10 1 0
BITMAP
F8
F8
C0
C0
F8
F8
C0
C0
C0
C0
ENDCHAR

STARTCHAR G
ENCODING 71
SWIDTH 840 0
DWIDTH 11 0
BBX 10 10 1 0
BITMAP
1E00
7F80
6180
C000
C000
C7C0
C7C0
6180
7F80
1E00
ENDCHAR

STARTCHAR H
ENCODING 72
SWIDTH 680 0
DWIDTH 9 0
BBX 7 10 1 0
BITMAP
C6
C6
C6
C6
FE
FE
C6
C6
C6
C6
ENDCHAR

STARTCHAR I
ENCODING 73
SWIDTH 280 0
DWIDTH 4 0
BBX 2 10 1 0
BITMAP
C0
C0
C0
C0
C0
C0
C0
C0
C0
C0
ENDCHAR

STARTCHAR J
ENCODING 74
SWIDTH 480 0
DWIDTH 6 0
BBX 5 10 1 0
BITMAP
18
18
18
18
18
18
18
D8
F8
70
ENDCHAR

STARTCHAR K
ENCODING 75
SWIDTH 620 0
DWIDTH 8 0
BBX 7 10 1 0
BITMAP
C6
C6
CC
D8
F0
F0
D8
CC
C6
C6
ENDCHAR

STARTCHAR L
ENCODING 76
SWIDTH 440 0
DWIDTH 6 0
BBX 5 10 1 0
BITMAP
C0
C0
C0
C0
C0
C0
C0
C0
F8
F8
ENDCHAR

STARTCHAR M
ENCODING 77
SWIDTH 900 0
DWIDTH 12 0
BBX 12 10 0 0
BITMAP
30C0
30C0
39C0
79E0
6960
6F60
6F60
C630
C630
C630
ENDCHAR

STARTCHAR N
ENCODING 78
SWIDTH 740 0
DWIDTH 10 0
BBX 8 10 1 0
BITMAP
C3
E3
E3
F3
DB
DB
CF
C7
C7
C3
ENDCHAR

STARTCHAR O
ENCODING 79
SWIDTH 840 0
DWIDTH 11 0
BBX 10 10 1 0
BITMAP
1E00
7F80
6180
C0C0
C0C0
C0C0
C0C0
6180
7F80
1E00
ENDCHAR

STARTCHAR P
ENCODING 80
SWIDTH 560 0
DWIDTH 7 0
BBX 6 10 1 0
BITMAP
F8
FC
CC
CC
FC
F8
C0
C0
C0
C0
ENDCHAR

STARTCHAR Q
ENCODING 81
SWIDTH 840 0
DWIDTH 11 0
BBX 10 10 1 0
BITMAP
1E00
7F80
6180
C0C0
C0C0
C0C0
C6C0
6380
7F80
1EC0
ENDCHAR

STARTCHAR R
ENCODING 82
SWIDTH 580 0
DWIDTH 7 0
BBX 6 10 1 0
BITMAP
F8
FC
CC
CC
FC
F8
D8
D8
CC
CC
ENDCHAR

STARTCHAR S
ENCODING 83
SWIDTH 520 0
DWIDTH 7 0
BBX 6 10 1 0
BITMAP
78
FC
CC
C0
70
38
0C
CC
FC
78
ENDCHAR

STARTCHAR T
ENCODING 84
SWIDTH 420 0
DWIDTH 5 0
BBX 6 10 0 0
BITMAP
FC
FC
30
30
30
30
30
30
30
30
ENDCHAR

STARTCHAR U
ENCODING 85
SWIDTH 640 0
DWIDTH 9 0
BBX 7 10 1 0
BITMAP
C6
C6
C6
C6
C6
C6
C6
C6
7C
38
ENDCHAR

STARTCHAR V
ENCODING 86
SWIDTH 700 0
DWIDTH 9 0
BBX 8 10 1 0
BITMAP
C3
C3
C3
66
66
66
3C
3C
18
18
ENDCHAR

STARTCHAR W
ENCODING 87
SWIDTH 900 0
DWIDTH 12 0
BBX 12 10 0 0
BITMAP
C630
C630
C630
6F60
6F60
6960
39C0
39C0
30C0
30C0
ENDCHAR

STARTCHAR X
ENCODING 88
SWIDTH 680 0
DWIDTH 9 0
BBX 7 10 1 0
BITMAP
C6
C6
6C
6C
38
38
6C
6C
C6
C6
ENDCHAR

STARTCHAR Y
ENCODING 89
SWIDTH 620 0
DWIDTH 8 0
BBX 8 10 0 0
BITMAP
C3
C3
66
66
3C
18
18
18
18
18
ENDCHAR

STARTCHAR Z
ENCODING 90
SWIDTH 500 0
DWIDTH 7 0
BBX 6 10 1 0
BITMAP
FC
FC
0C
18
30
30
60
C0
FC
FC
ENDCHAR

STARTCHAR bracketleft
ENCODING 91
SWIDTH 320 0
DWIDTH 4 0
BBX 3 13 1 -3
BITMAP
E0
E0
C0
C0
C0
C0
C0
C0
C0
C0
C0
E0
E0
ENDCHAR

STARTCHAR backslash
ENCODING 92
SWIDTH 640 0
DWIDTH 8 0
BBX 6 12 1 -2
BITMAP
C0
40
40
60
20
20
10
10
18
08
08
0C
ENDCHAR

STARTCHAR bracketright
ENCODING 93
SWIDTH 320 0
DWIDTH 4 0
BBX 3 13 1 -3
BITMAP
E0
E0
60
60
60
60
60
60
60
60
60
E0
E0
ENDCHAR

STARTCHAR asciicircum
ENCODING 94
SWIDTH 600 0
DWIDTH 8 0
BBX 7 7 1 3
BITMAP
10
10
38
28
6C
44
C6
ENDCHAR

STARTCHAR underscore
ENCODING 95
SWIDTH 500 0
DWIDTH 7 0
BBX 7 1 0 -2
BITMAP
FE
ENDCHAR

STARTCHAR quoteleft
ENCODING 96
SWIDTH 280 0
DWIDTH 4 0
BBX 3 4 1 6
BITMAP
60
C0
C0
C0
ENDCHAR

STARTCHAR a
ENCODING 97
SWIDTH 660 0
DWIDTH 9 0
BBX 8 7 1 0
BITMAP
3B
6F
C7
C3
C7
6F
3B
ENDCHAR

STARTCHAR b
ENCODING 98
SWIDTH 660 0
DWIDTH 9 0
BBX 8 10 1 0
BITMAP
C0
C0
C0
DC
F6
E3
C3
E3
F6
DC
ENDCHAR

STARTCHAR c
ENCODING 99
SWIDTH 640 0
DWIDTH 8 0
BBX 7 7 1 0
BITMAP
3C
66
C0
C0
C0
66
3C
ENDCHAR

STARTCHAR d
ENCODING 100
SWIDTH 660 0
DWIDTH 9 0
BBX 8 10 1 0
BITMAP
03
03
03
3B
6F
C7
C3
C7
6F
3B
ENDCHAR

STARTCHAR e
ENCODING 101
SWIDTH 640 0
DWIDTH 8 0
BBX 7 7 1 0
BITMAP
38
6C
C6
FE
C0
6C
38
ENDCHAR

STARTCHAR f
ENCODING 102
SWIDTH 280 0
DWIDTH 4 0
BBX 4 10 0 0
BITMAP
30
60
60
F0
60
60
60
60
60
60
ENDCHAR

STARTCHAR g
ENCODING 103
SWIDTH 660 0
DWIDTH 9 0
BBX 7 10 1 -3
BITMAP
36
6E
C6
C6
C6
6E
36
06
CC
78
ENDCHAR

STARTCHAR h
ENCODING 104
SWIDTH 600 0
DWIDTH 8 0
BBX 7 10 1 0
BITMAP
C0
C0
C0
DC
F6
E6
C6
C6
C6
C6
ENDCHAR

STARTCHAR i
ENCODING 105
SWIDTH 240 0
DWIDTH 3 0
BBX 2 10 1 0
BITMAP
C0
C0
00
C0
C0
C0
C0
C0
C0
C0
ENDCHAR

STARTCHAR j
ENCODING 106
SWIDTH 260 0
DWIDTH 3 0
BBX 3 13 0 -3
BITMAP
60
60
00
60
60
60
60
60
60
60
60
60
C0
ENDCHAR

STARTCHAR k
ENCODING 107
SWIDTH 580 0
DWIDTH 8 0
BBX 7 10 1 0
BITMAP
C0
C0
C0
C6
CC
D8
F0
D8
CC
C6
ENDCHAR

STARTCHAR l
ENCODING 108
SWIDTH 240 0
DWIDTH 3 0
BBX 2 10 1 0
BITMAP
C0
C0
C0
C0
C0
C0
C0
C0
C0
C0
ENDCHAR

STARTCHAR m
ENCODING 109
SWIDTH 940 0
DWIDTH 11 0
BBX 10 7 1 0
BITMAP
D980
EEC0
CCC0
CCC0
CCC0
CCC0
CCC0
ENDCHAR

STARTCHAR n
ENCODING 110
SWIDTH 600 0
DWIDTH 8 0
BBX 7 7 1 0
BITMAP
DC
F6
E6
C6
C6
C6
C6
ENDCHAR

STARTCHAR o
ENCODING 111
SWIDTH 640 0
DWIDTH 8 0
BBX 7 7 1 0
BITMAP
38
6C
C6
C6
C6
6C
38
ENDCHAR

STARTCHAR p
ENCODING 112
SWIDTH 660 0
DWIDTH 9 0
BBX 8 10 1 -3
BITMAP
DC
F6
E3
C3
E3
F6
DC
C0
C0
C0
ENDCHAR

STARTCHAR q
ENCODING 113
SWIDTH 660 0
DWIDTH 9 0
BBX 8 10 1 -3
BITMAP
3B
6F
C7
C3
C7
6F
3B
03
03
03
ENDCHAR

STARTCHAR r
ENCODING 114
SWIDTH 320 0
DWIDTH 5 0
BBX 4 7 1 0
BITMAP
D0
F0
E0
C0
C0
C0
C0
ENDCHAR

STARTCHAR s
ENCODING 115
SWIDTH 440 0
DWIDTH 6 0
BBX 5 7 1 0
BITMAP
70
D8
C0
70
18
D8
70
ENDCHAR

STARTCHAR t
ENCODING 116
SWIDTH 300 0
DWIDTH 4 0
BBX 4 10 0 0
BITMAP
60
60
60
F0
60
60
60
60
60
60
ENDCHAR

STARTCHAR u
ENCODING 117
SWIDTH 600 0
DWIDTH 8 0
BBX 7 7 1 0
BITMAP
C6
C6
C6
C6
C6
C6
7C
ENDCHAR

STARTCHAR v
ENCODING 118
SWIDTH 560 0
DWIDTH 7 0
BBX 6 7 1 0
BITMAP
CC
CC
CC
48
78
30
30
ENDCHAR

STARTCHAR w
ENCODING 119
SWIDTH 800 0
DWIDTH 11 0
BBX 10 7 1 0
BITMAP
CCC0
CCC0
6D80
6D80
7F80
3300
3300
ENDCHAR

STARTCHAR x
ENCODING 120
SWIDTH 560 0
DWIDTH 7 0
BBX 7 7 0 0
BITMAP
C6
6C
38
38
38
6C
C6
ENDCHAR

STARTCHAR y
ENCODING 121
SWIDTH 580 0
DWIDTH 8 0
BBX 7 10 1 -3
BITMAP
C6
C6
C6
6C
6C
38
18
30
30
60
ENDCHAR

STARTCHAR z
ENCODING 122
SWIDTH 460 0
DWIDTH 6 0
BBX 5 7 1 0
BITMAP
F8
18
30
60
60
C0
F8
ENDCHAR

STARTCHAR braceleft
ENCODING 123
SWIDTH 340 0
DWIDTH 4 0
BBX 4 13 0 -3
BITMAP
30
70
60
60
60
C0
C0
C0
60
60
60
70
30
ENDCHAR

STARTCHAR bar
ENCODING 124
SWIDTH 600 0
DWIDTH 8 0
BBX 1 13 3 -3
BITMAP
80
80
80
80
80
80
80
80
80
80
80
80
80
ENDCHAR

STARTCHAR braceright
ENCODING 125
SWIDTH 340 0
DWIDTH 4 0
BBX 4 13 0 -3
BITMAP
C0
E0
60
60
60
30
30
30
60
60
60
E0
C0
ENDCHAR

STARTCHAR asciitilde
ENCODING 126
SWIDTH 600 0
DWIDTH 8 0
BBX 6 3 1 3
BITMAP
64
FC
98
ENDCHAR

STARTCHAR space
ENCODING 160
SWIDTH 280 0
DWIDTH 4 0
BBX 0 0 0 0
BITMAP
ENDCHAR

STARTCHAR Aogonek
ENCODING 161
SWIDTH 740 0
DWIDTH 10 0
BBX 11 13 0 -3
BITMAP
0C00
0C00
1E00
1E00
3300
3300
7F80
7F80
C0C0
C0C0
00C0
00E0
0060
ENDCHAR

STARTCHAR breve
ENCODING 162
SWIDTH 480 0
DWIDTH 6 0
BBX 6 2 0 9
BITMAP
CC
78
ENDCHAR

STARTCHAR Lslash
ENCODING 163
SWIDTH 480 0
DWIDTH 6 0
BBX 6 10 0 0
BITMAP
60
60
70
70
60
60
E0
E0
7C
7C
ENDCHAR

STARTCHAR currency
ENCODING 164
SWIDTH 600 0
DWIDTH 8 0
BBX 7 7 1 1
BITMAP
BA
7C
C6
C6
C6
7C
BA
ENDCHAR

STARTCHAR Lcaron
ENCODING 165
SWIDTH 440 0
DWIDTH 6 0
BBX 5 10 1 0
BITMAP
D8
D8
F0
C0
C0
C0
C0
C0
F8
F8
ENDCHAR

STARTCHAR Sacute
ENCODING 166
SWIDTH 520 0
DWIDTH 7 0
BBX 6 13 1 0
BITMAP
18
30
00
78
FC
CC
C0
70
38
0C
CC
FC
78
ENDCHAR

STARTCHAR section
ENCODING 167
SWIDTH 560 0
DWIDTH 7 0
BBX 7 13 0 -3
BITMAP
3C
66
66
30
78
CC
C6
66
3C
18
CC
CC
78
ENDCHAR

STARTCHAR dieresis
ENCODING 168
SWIDTH 500 0
DWIDTH 7 0
BBX 6 2 1 8
BITMAP
CC
CC
ENDCHAR

STARTCHAR Scaron
ENCODING 169
SWIDTH 520 0
DWIDTH 7 0
BBX 6 13 1 0
BITMAP
6C
38
00
78
FC
CC
C0
70
38
0C
CC
FC
78
ENDCHAR

STARTCHAR Scommaaccent
ENCODING 170
SWIDTH 520 0
DWIDTH 7 0
BBX 6 13 1 -3
BITMAP
78
FC
CC
C0
70
38
0C
CC
FC
78
00
30
60
ENDCHAR

STARTCHAR Tcaron
ENCODING 171
SWIDTH 420 0
DWIDTH 5 0
BBX 6 13 0 0
BITMAP
D8
70
00
FC
FC
30
30
30
30
30
30
30
30
ENDCHAR

STARTCHAR Zacute
ENCODING 172
SWIDTH 500 0
DWIDTH 7 0
BBX 6 13 1 0
BITMAP
18
30
00
FC
FC
0C
18
30
30
60
C0
FC
FC
ENDCHAR

STARTCHAR hyphen
ENCODING 173
SWIDTH 420 0
DWIDTH 5 0
BBX 4 2 1 2
BITMAP
F0
F0
ENDCHAR

STARTCHAR Zcaron
ENCODING 174
SWIDTH 500 0
DWIDTH 7 0
BBX 6 13 1 0
BITMAP
6C
38
00
FC
FC
0C
18
30
30
60
C0
FC
FC
ENDCHAR

STARTCHAR Zdotaccent
ENCODING 175
SWIDTH 500 0
DWIDTH 7 0
BBX 6 13 1 0
BITMAP
30
30
00
FC
FC
0C
18
30
30
60
C0
FC
FC
ENDCHAR

STARTCHAR degree
ENCODING 176
SWIDTH 400 0
DWIDTH 5 0
BBX 5 5 0 5
BITMAP
70
88
88
88
70
ENDCHAR

STARTCHAR aogonek
ENCODING 177
SWIDTH 660 0
DWIDTH 9 0
BBX 9 10 1 -3
BITMAP
3B00
6F00
C700
C700
C700
6F00
3B00
0300
0380
0180
ENDCHAR

STARTCHAR ogonek
ENCODING 178
SWIDTH 340 0
DWIDTH 4 0
BBX 3 3 1 -3
BITMAP
C0
E0
60
ENDCHAR

STARTCHAR lslash
ENCODING 179
SWIDTH 320 0
DWIDTH 4 0
BBX 4 10 0 0
BITMAP
60
60
70
70
60
E0
E0
60
60
60
ENDCHAR

STARTCHAR acute
ENCODING 180
SWIDTH 420 0
DWIDTH 5 0
BBX 3 2 1 9
BITMAP
60
C0
ENDCHAR

STARTCHAR lcaron
ENCODING 181
SWIDTH 315 0
DWIDTH 4 0
BBX 5 10 1 0
BITMAP
D8
D8
F0
C0
C0
C0
C0
C0
C0
C0
ENDCHAR

STARTCHAR sacute
ENCODING 182
SWIDTH 440 0
DWIDTH 6 0
BBX 5 10 1 0
BITMAP
18
30
00
70
D8
C0
70
18
D8
70
ENDCHAR

STARTCHAR caron
ENCODING 183
SWIDTH 540 0
DWIDTH 7 0
BBX 5 2 1 8
BITMAP
D8
70
ENDCHAR

STARTCHAR commaaccent
ENCODING 184
SWIDTH 333 0
DWIDTH 4 0
BBX 3 2 0 -3
BITMAP
60
C0
ENDCHAR

STARTCHAR scaron
ENCODING 185
SWIDTH 440 0
DWIDTH 6 0
BBX 5 10 1 0
BITMAP
D8
70
00
70
D8
C0
70
18
D8
70
ENDCHAR

STARTCHAR scommaaccent
ENCODING 186
SWIDTH 440 0
DWIDTH 6 0
BBX 5 10 1 -3
BITMAP
70
D8
C0
70
18
D8
70
00
60
C0
ENDCHAR

STARTCHAR tcaron
ENCODING 187
SWIDTH 418 0
DWIDTH 5 0
BBX 6 10 0 0
BITMAP
6C
6C
78
F0
60
60
60
60
60
60
ENDCHAR

STARTCHAR zacute
ENCODING 188
SWIDTH 460 0
DWIDTH 6 0
BBX 5 10 1 0
BITMAP
18
30
00
F8
18
30
60
60
C0
F8
ENDCHAR

STARTCHAR hungarumlaut
ENCODING 189
SWIDTH 700 0
DWIDTH 9 0
BBX 7 2 2 8
BITMAP
66
CC
ENDCHAR

STARTCHAR zcaron
ENCODING 190
SWIDTH 460 0
DWIDTH 6 0
BBX 5 10 1 0
BITMAP
D8
70
00
F8
18
30
60
60
C0
F8
ENDCHAR

STARTCHAR zdotaccent
ENCODING 191
SWIDTH 460 0
DWIDTH 6 0
BBX 5 10 1 0
BITMAP
30
30
00
F8
18
30
60
60
C0
F8
ENDCHAR

STARTCHAR Racute
ENCODING 192
SWIDTH 580 0
DWIDTH 7 0
BBX 6 13 1 0
BITMAP
18
30
00
F8
FC
CC
CC
FC
F8
D8
D8
CC
CC
ENDCHAR

STARTCHAR Aacute
ENCODING 193
SWIDTH 740 0
DWIDTH 10 0
BBX 10 13 0 0
BITMAP
0600
0C00
0000
0C00
0C00
1E00
1E00
3300
3300
7F80
7F80
C0C0
C0C0
ENDCHAR

STARTCHAR Acircumflex
ENCODING 194
SWIDTH 740 0
DWIDTH 10 0
BBX 10 13 0 0
BITMAP
1C00
3600
0000
0C00
0C00
1E00
1E00
3300
3300
7F80
7F80
C0C0
C0C0
ENDCHAR

STARTCHAR Abreve
ENCODING 195
SWIDTH 740 0
DWIDTH 10 0
BBX 10 13 0 0
BITMAP
3600
1C00
0000
0C00
0C00
1E00
1E00
3300
3300
7F80
7F80
C0C0
C0C0
ENDCHAR

STARTCHAR Adieresis
ENCODING 196
SWIDTH 740 0
DWIDTH 10 0
BBX 10 13 0 0
BITMAP
3300
3300
0000
0C00
0C00
1E00
1E00
3300
3300
7F80
7F80
C0C0
C0C0
ENDCHAR

STARTCHAR Lacute
ENCODING 197
SWIDTH 440 0
DWIDTH 6 0
BBX 5 13 1 0
BITMAP
18
30
00
C0
C0
C0
C0
C0
C0
C0
C0
F8
F8
ENDCHAR

STARTCHAR Cacute
ENCODING 198
SWIDTH 780 0
DWIDTH 10 0
BBX 9 13 1 0
BITMAP
0600
0C00
0000
1E00
7F80
6180
C000
C000
C000
C000
6180
7F80
1E00
ENDCHAR

STARTCHAR Ccedilla
ENCODING 199
SWIDTH 780 0
DWIDTH 10 0
BBX 9 13 1 -3
BITMAP
1E00
7F80
6180
C000
C000
C000
C000
6180
7F80
1E00
0C00
0600
1C00
ENDCHAR

STARTCHAR Ccaron
ENCODING 200
SWIDTH 780 0
DWIDTH 10 0
BBX 9 13 1 0
BITMAP
1B00
0E00
0000
1E00
7F80
6180
C000
C000
C000
C000
6180
7F80
1E00
ENDCHAR

STARTCHAR Eacute
ENCODING 201
SWIDTH 520 0
DWIDTH 7 0
BBX 5 13 1 0
BITMAP
18
30
00
F8
F8
C0
C0
F8
F8
C0
C0
F8
F8
ENDCHAR

STARTCHAR Eogonek
ENCODING 202
SWIDTH 520 0
DWIDTH 7 0
BBX 5 13 1 -3
BITMAP
F8
F8
C0
C0
F8
F8
C0
C0
F8
F8
30
38
18
ENDCHAR

STARTCHAR Edieresis
ENCODING 203
SWIDTH 520 0
DWIDTH 7 0
BBX 6 13 1 0
BITMAP
CC
CC
00
F8
F8
C0
C0
F8
F8
C0
C0
F8
F8
ENDCHAR

STARTCHAR Ecaron
ENCODING 204
SWIDTH 520 0
DWIDTH 7 0
BBX 5 13 1 0
BITMAP
D8
70
00
F8
F8
C0
C0
F8
F8
C0
C0
F8
F8
ENDCHAR

STARTCHAR Iacute
ENCODING 205
SWIDTH 280 0
DWIDTH 4 0
BBX 3 13 1 0
BITMAP
60
C0
00
C0
C0
C0
C0
C0
C0
C0
C0
C0
C0
ENDCHAR

STARTCHAR Icircumflex
ENCODING 206
SWIDTH 280 0
DWIDTH 4 0
BBX 5 13 0 0
BITMAP
70
D8
00
60
60
60
60
60
60
60
60
60
60
ENDCHAR

STARTCHAR Dcaron
ENCODING 207
SWIDTH 700 0
DWIDTH 9 0
BBX 8 13 1 0
BITMAP
6C
38
00
F8
FE
C6
C3
C3
C3
C3
C6
FE
F8
ENDCHAR

STARTCHAR Dcroat
ENCODING 208
SWIDTH 742 0
DWIDTH 9 0
BBX 9 10 0 0
BITMAP
7C00
7F00
6300
6180
F980
6180
6180
6300
7F00
7C00
ENDCHAR

STARTCHAR Nacute
ENCODING 209
SWIDTH 740 0
DWIDTH 10 0
BBX 8 13 1 0
BITMAP
0C
18
00
C3
E3
E3
F3
DB
DB
CF
C7
C7
C3
ENDCHAR

STARTCHAR Ncaron
ENCODING 210
SWIDTH 740 0
DWIDTH 10 0
BBX 8 13 1 0
BITMAP
36
1C
00
C3
E3
E3
F3
DB
DB
CF
C7
C7
C3
ENDCHAR

STARTCHAR Oacute
ENCODING 211
SWIDTH 840 0
DWIDTH 11 0
BBX 10 13 1 0
BITMAP
0600
0C00
0000
1E00
7F80
6180
C0C0
C0C0
C0C0
C0C0
6180
7F80
1E00
ENDCHAR

STARTCHAR Ocircumflex
ENCODING 212
SWIDTH 840 0
DWIDTH 11 0
BBX 10 13 1 0
BITMAP
0E00
1B00
0000
1E00
7F80
6180
C0C0
C0C0
C0C0
C0C0
6180
7F80
1E00
ENDCHAR

STARTCHAR Ohungarumlaut
ENCODING 213
SWIDTH 840 0
DWIDTH 11 0
BBX 10 13 1 0
BITMAP
0CC0
1980
0000
1E00
7F80
6180
C0C0
C0C0
C0C0
C0C0
6180
7F80
1E00
ENDCHAR

STARTCHAR Odieresis
ENCODING 214
SWIDTH 840 0
DWIDTH 11 0
BBX 10 13 1 0
BITMAP
3300
3300
0000
1E00
7F80
6180
C0C0
C0C0
C0C0
C0C0
6180
7F80
1E00
ENDCHAR

STARTCHAR multiply
ENCODING 215
SWIDTH 600 0
DWIDTH 8 0
BBX 6 5 1 2
BITMAP
CC
78
30
78
CC
ENDCHAR

STARTCHAR Rcaron
ENCODING 216
SWIDTH 580 0
DWIDTH 7 0
BBX 6 13 1 0
BITMAP
6C
38
00
F8
FC
CC
CC
FC
F8
D8
D8
CC
CC
ENDCHAR

STARTCHAR Uring
ENCODING 217
SWIDTH 640 0
DWIDTH 9 0
BBX 7 13 1 0
BITMAP
18
24
24
DE
C6
C6
C6
C6
C6
C6
C6
7C
38
ENDCHAR

STARTCHAR Uacute
ENCODING 218
SWIDTH 640 0
DWIDTH 9 0
BBX 7 13 1 0
BITMAP
0C
18
00
C6
C6
C6
C6
C6
C6
C6
C6
7C
38
ENDCHAR

STARTCHAR Uhungarumlaut
ENCODING 219
SWIDTH 640 0
DWIDTH 9 0
BBX 8 13 1 0
BITMAP
33
66
00
C6
C6
C6
C6
C6
C6
C6
C6
7C
38
ENDCHAR

STARTCHAR Udieresis
ENCODING 220
SWIDTH 640 0
DWIDTH 9 0
BBX 7 13 1 0
BITMAP
6C
6C
00
C6
C6
C6
C6
C6
C6
C6
C6
7C
38
ENDCHAR

STARTCHAR Yacute
ENCODING 221
SWIDTH 620 0
DWIDTH 8 0
BBX 8 13 0 0
BITMAP
0C
18
00
C3
C3
66
66
3C
18
18
18
18
18
ENDCHAR

STARTCHAR Tcommaaccent
ENCODING 222
SWIDTH 420 0
DWIDTH 5 0
BBX 6 13 0 -3
BITMAP
FC
FC
30
30
30
30
30
30
30
30
00
30
60
ENDCHAR

STARTCHAR germandbls
ENCODING 223
SWIDTH 600 0
DWIDTH 8 0
BBX 6 10 1 0
BITMAP
38
7C
CC
CC
D8
DC
CC
CC
DC
D8
ENDCHAR

STARTCHAR racute
ENCODING 224
SWIDTH 320 0
DWIDTH 5 0
BBX 4 10 1 0
BITMAP
30
60
00
D0
F0
E0
C0
C0
C0
C0
ENDCHAR

STARTCHAR aacute
ENCODING 225
SWIDTH 660 0
DWIDTH 9 0
BBX 8 10 1 0
BITMAP
0C
18
00
3B
6F
C7
C3
C7
6F
3B
ENDCHAR

STARTCHAR acircumflex
ENCODING 226
SWIDTH 660 0
DWIDTH 9 0
BBX 8 10 1 0
BITMAP
1C
36
00
3B
6F
C7
C3
C7
6F
3B
ENDCHAR

STARTCHAR abreve
ENCODING 227
SWIDTH 660 0
DWIDTH 9 0
BBX 8 11 1 0
BITMAP
66
3C
00
00
3B
6F
C7
C3
C7
6F
3B
ENDCHAR

STARTCHAR adieresis
ENCODING 228
SWIDTH 660 0
DWIDTH 9 0
BBX 8 10 1 0
BITMAP
66
66
00
3B
6F
C7
C3
C7
6F
3B
ENDCHAR

STARTCHAR lacute
ENCODING 229
SWIDTH 240 0
DWIDTH 3 0
BBX 3 13 1 0
BITMAP
60
C0
00
C0
C0
C0
C0
C0
C0
C0
C0
C0
C0
ENDCHAR

STARTCHAR cacute
ENCODING 230
SWIDTH 640 0
DWIDTH 8 0
BBX 7 10 1 0
BITMAP
0C
18
00
3C
66
C0
C0
C0
66
3C
ENDCHAR

STARTCHAR ccedilla
ENCODING 231
SWIDTH 640 0
DWIDTH 8 0
BBX 7 10 1 -3
BITMAP
3C
66
C0
C0
C0
66
3C
18
0C
38
ENDCHAR

STARTCHAR ccaron
ENCODING 232
SWIDTH 640 0
DWIDTH 8 0
BBX 7 10 1 0
BITMAP
6C
38
00
3C
66
C0
C0
C0
66
3C
ENDCHAR

STARTCHAR eacute
ENCODING 233
SWIDTH 640 0
DWIDTH 8 0
BBX 7 10 1 0
BITMAP
18
30
00
38
6C
C6
FE
C0
6C
38
ENDCHAR

STARTCHAR eogonek
ENCODING 234
SWIDTH 640 0
DWIDTH 8 0
BBX 7 10 1 -3
BITMAP
38
6C
C6
FE
C0
6C
38
30
38
18
ENDCHAR

STARTCHAR edieresis
ENCODING 235
SWIDTH 640 0
DWIDTH 8 0
BBX 7 10 1 0
BITMAP
66
66
00
38
6C
C6
FE
C0
6C
38
ENDCHAR

STARTCHAR ecaron
ENCODING 236
SWIDTH 640 0
DWIDTH 8 0
BBX 7 10 1 0
BITMAP
6C
38
00
38
6C
C6
FE
C0
6C
38
ENDCHAR

STARTCHAR iacute
ENCODING 237
SWIDTH 240 0
DWIDTH 3 0
BBX 3 10 1 0
BITMAP
60
C0
00
C0
C0
C0
C0
C0
C0
C0
ENDCHAR

STARTCHAR icircumflex
ENCODING 238
SWIDTH 240 0
DWIDTH 3 0
BBX 5 10 0 0
BITMAP
70
D8
00
60
60
60
60
60
60
60
ENDCHAR

STARTCHAR dcaron
ENCODING 239
SWIDTH 721 0
DWIDTH 10 0
BBX 10 10 1 0
BITMAP
03C0
03C0
0340
3B80
6F00
C700
C300
C700
6F00
3B00
ENDCHAR

STARTCHAR dcroat
ENCODING 240
SWIDTH 660 0
DWIDTH 9 0
BBX 9 10 1 0
BITMAP
0300
0F80
0300
3B00
6F00
C700
C300
C700
6F00
3B00
ENDCHAR

STARTCHAR nacute
ENCODING 241
SWIDTH 600 0
DWIDTH 8 0
BBX 7 10 1 0
BITMAP
18
30
00
DC
F6
E6
C6
C6
C6
C6
ENDCHAR

STARTCHAR ncaron
ENCODING 242
SWIDTH 600 0
DWIDTH 8 0
BBX 7 10 1 0
BITMAP
6C
38
00
DC
F6
E6
C6
C6
C6
C6
ENDCHAR

STARTCHAR oacute
ENCODING 243
SWIDTH 640 0
DWIDTH 8 0
BBX 7 10 1 0
BITMAP
0C
18
00
38
6C
C6
C6
C6
6C
38
ENDCHAR

STARTCHAR ocircumflex
ENCODING 244
SWIDTH 640 0
DWIDTH 8 0
BBX 7 10 1 0
BITMAP
38
6C
00
38
6C
C6
C6
C6
6C
38
ENDCHAR

STARTCHAR ohungarumlaut
ENCODING 245
SWIDTH 640 0
DWIDTH 8 0
BBX 7 10 1 0
BITMAP
36
6C
00
38
6C
C6
C6
C6
6C
38
ENDCHAR

STARTCHAR odieresis
ENCODING 246
SWIDTH 640 0
DWIDTH 8 0
BBX 7 10 1 0
BITMAP
6C
6C
00
38
6C
C6
C6
C6
6C
38
ENDCHAR

STARTCHAR divide
ENCODING 247
SWIDTH 600 0
DWIDTH 8 0
BBX 6 8 1 1
BITMAP
30
30
00
FC
FC
00
30
30
ENDCHAR

STARTCHAR rcaron
ENCODING 248
SWIDTH 320 0
DWIDTH 5 0
BBX 5 10 1 0
BITMAP
D8
70
00
D0
F0
E0
C0
C0
C0
C0
ENDCHAR

STARTCHAR uring
ENCODING 249
SWIDTH 600 0
DWIDTH 8 0
BBX 7 12 1 0
BITMAP
10
28
28
10
00
C6
C6
C6
C6
C6
C6
7C
ENDCHAR

STARTCHAR uacute
ENCODING 250
SWIDTH 600 0
DWIDTH 8 0
BBX 7 10 1 0
BITMAP
18
30
00
C6
C6
C6
C6
C6
C6
7C
ENDCHAR

STARTCHAR uhungarumlaut
ENCODING 251
SWIDTH 600 0
DWIDTH 8 0
BBX 7 10 1 0
BITMAP
66
CC
00
C6
C6
C6
C6
C6
C6
7C
ENDCHAR

STARTCHAR udieresis
ENCODING 252
SWIDTH 600 0
DWIDTH 8 0
BBX 7 10 1 0
BITMAP
6C
6C
00
C6
C6
C6
C6
C6
C6
7C
ENDCHAR

STARTCHAR yacute
ENCODING 253
SWIDTH 580 0
DWIDTH 8 0
BBX 7 13 1 -3
BITMAP
0C
18
00
C6
C6
C6
6C
6C
38
18
30
30
60
ENDCHAR

STARTCHAR tcommaaccent
ENCODING 254
SWIDTH 300 0
DWIDTH 4 0
BBX 4 13 0 -3
BITMAP
60
60
60
F0
60
60
60
60
60
60
00
60
C0
ENDCHAR

STARTCHAR dotaccent
ENCODING 255
SWIDTH 280 0
DWIDTH 4 0
BBX 2 2 1 8
BITMAP
C0
C0
ENDCHAR
ENDFONT
